inDegrees=no
num_controls=7
num_derivatives=13
num_iterations=41
num_multipliers=7
num_parameters=0
num_slacks=7
num_states=26
objective=0.426451
objective_accelerations=0.060042
objective_balance=0.001148
objective_effort=0.015634
objective_height=0.343695
objective_ligament=0.005932
solver_duration=594.984891
status=Solve_Succeeded
success=true
DataType=double
version=3
OpenSimVersion=4.5
endheader
time	/jointset/ground_pelvis/pelvis_tilt/value	/jointset/ground_pelvis/pelvis_tx/value	/jointset/ground_pelvis/pelvis_ty/value	/jointset/hip_l/hip_flexion_l/value	/jointset/hip_l/hip_adduction_l/value	/jointset/hip_l/hip_rotation_l/value	/jointset/back/lumbar_extension/value	/jointset/patellofemoral_l/patellar_flexion_l/value	/jointset/knee_l/knee_flexion_l/value	/jointset/knee_l/knee_adduction_l/value	/jointset/knee_l/knee_rotation_l/value	/jointset/ankle_l/ankle_angle_l/value	/jointset/subtalar_l/subtalar_angle_l/value	/jointset/ground_pelvis/pelvis_tilt/speed	/jointset/ground_pelvis/pelvis_tx/speed	/jointset/ground_pelvis/pelvis_ty/speed	/jointset/hip_l/hip_flexion_l/speed	/jointset/hip_l/hip_adduction_l/speed	/jointset/hip_l/hip_rotation_l/speed	/jointset/back/lumbar_extension/speed	/jointset/patellofemoral_l/patellar_flexion_l/speed	/jointset/knee_l/knee_flexion_l/speed	/jointset/knee_l/knee_adduction_l/speed	/jointset/knee_l/knee_rotation_l/speed	/jointset/ankle_l/ankle_angle_l/speed	/jointset/subtalar_l/subtalar_angle_l/speed	/forceset/tau_hip_flexion_l	/forceset/tau_hip_adduction_l	/forceset/tau_hip_rotation_l	/forceset/tau_knee_flexion_l	/forceset/tau_ankle_angle_l	/forceset/tau_subtalar_angle_l	/forceset/tau_lumbar_extension	lambda_cid13_p0	lambda_cid13_p1	lambda_cid13_p2	lambda_cid13_p3	lambda_cid13_p4	lambda_cid13_p5	lambda_cid14_p0	/jointset/ground_pelvis/pelvis_tilt/accel	/jointset/ground_pelvis/pelvis_tx/accel	/jointset/ground_pelvis/pelvis_ty/accel	/jointset/hip_l/hip_flexion_l/accel	/jointset/hip_l/hip_adduction_l/accel	/jointset/hip_l/hip_rotation_l/accel	/jointset/back/lumbar_extension/accel	/jointset/patellofemoral_l/patellar_flexion_l/accel	/jointset/knee_l/knee_flexion_l/accel	/jointset/knee_l/knee_adduction_l/accel	/jointset/knee_l/knee_rotation_l/accel	/jointset/ankle_l/ankle_angle_l/accel	/jointset/subtalar_l/subtalar_angle_l/accel	gamma_cid13_p0	gamma_cid13_p1	gamma_cid13_p2	gamma_cid13_p3	gamma_cid13_p4	gamma_cid13_p5	gamma_cid14_p0
0	0.04753174765065421	0.1082927905270266	0.9028515528420474	0.1266922784136757	-0.3701785814473458	-0.2279625425973721	-0.2144969558742783	0.2051545070141956	0.2051545070141877	-0.1744967474383074	-0.1630485403200112	0.09024313228550125	0.07891340808748006	0	0	0	0	0	0	0	0	0	0	0	0	0	0.1154063691593507	-0.03599613413669596	-0.0105770359089266	-0.2477929503684737	0.188550620003656	-0.1085147610848863	-0.04883894963565891	28.46807137130365	43.12019480527501	-8.271274515835199	-18.05931096961965	-439.5720881115122	-29.9312943538791	-26.34697609627941	-3.589975841740131	-1.161020252141829	-0.8663956957690587	11.9436893144894	-0.05635869220972102	3.371547467119667	-3.611018666202488	10.7667086824601	10.76670868246009	2.544482228376863	-0.7936750140787204	3.477420842883696	0.9410484964295999	2.269684037867876e-08	6.928375214104047e-07	-2.106643208493803e-07	5.399087921489865e-08	4.225147801823064e-08	3.337529370755912e-07	1.032009535342903e-07
0.01	0.04736105928227836	0.1082367507496074	0.9028094796778372	0.1272707220622089	-0.3701810631609817	-0.2277861321151355	-0.2146814221704555	0.2056804337384659	0.2056804337384184	-0.1743725089079559	-0.1630759090580801	0.09041528433348477	0.07896021149469028	-0.03392066161406638	-0.01103465072676228	-0.008395965980757585	0.1149751170459167	-0.0005686646790669357	0.03515021659972914	-0.03659183319204834	0.1047967357263721	0.1047967357263732	0.02459364068056092	-0.005464992237333201	0.03446906991218825	0.00929728727292015	0.1141780136681822	-0.04449950117151813	-0.01048669748932662	-0.2486782737592902	0.189312506974177	-0.1009216353801135	-0.04740746178639196	29.18521451576469	39.68496725347482	-7.709935033983182	-19.76746940276411	-439.8855965834061	-37.10042358951756	-26.34667658540449	-3.260558164827771	-1.048680972768316	-0.8233885696375671	11.16738201687939	-0.06804406005505395	3.567029936300644	-3.638051738341938	10.27784400968372	10.27784400968383	2.378790282479161	-0.4216492315405726	3.437469330172303	0.9144755701300588	4.792546256785267e-09	9.478416504900086e-07	-1.515591402824241e-07	9.18175141850359e-08	-1.594216343276597e-07	3.372800025121342e-07	1.297845067811916e-07
0.02	0.04685767492901773	0.1080755657669539	0.9026840085497368	0.128977508704658	-0.3701914162622851	-0.2272621652309208	-0.2152227640170763	0.2072426654183171	0.2072426654183241	-0.1740099369118885	-0.1631576752992519	0.09093329093355251	0.07909806912011254	-0.06653919697153872	-0.02102904104683816	-0.01667959277803188	0.2256685987812942	-0.001574277530110149	0.0695112803954859	-0.07137511008946025	0.2072609911310542	0.2072609911310563	0.04766669314445387	-0.01087950059386304	0.06917091041580267	0.01821084364211092	0.1129496581773771	-0.05300286820638467	-0.01039635906896282	-0.249563597150125	0.1900743939447007	-0.09332850967539727	-0.04597597393679336	29.95052969271123	36.25925437829283	-7.170618088478705	-21.52536255698299	-439.3190099498506	-44.07108199868458	-26.34564207977504	-3.329550590420705	-0.9529681708051084	-0.8439278590723652	11.08736225238164	-0.1437483266049107	3.213716906325134	-3.249307407274867	10.30021261812218	10.30021261812216	2.24036458504342	-0.7835782379181331	3.523974961168289	0.8643023156836044	-1.311174786510822e-08	1.202845779569613e-06	-9.245395971546804e-08	1.296441491551732e-07	-3.610947466735501e-07	3.408070679486771e-07	1.56368060028093e-07
0.03	0.0460329050562658	0.107817720196496	0.9024760569369117	0.131773666341214	-0.3702127179558179	-0.2264006335182868	-0.2161033009737352	0.2098167767079682	0.2098167767079891	-0.1734221353161004	-0.1632942454528281	0.09179631911934565	0.07932365156759374	-0.09832568770315686	-0.03055693813841702	-0.0249051798142174	0.3331592032611463	-0.002630091068726375	0.1026453909031552	-0.1045159878718431	0.3069913285756357	0.306991328575648	0.06982156817829968	-0.01631082387299869	0.1031427265273857	0.02688502054749108	0.1090477470305962	-0.04808498429439138	-0.009350694552620727	-0.2441844879037385	0.182208701160632	-0.09444972319240638	-0.04316421002384511	27.32742920859743	37.02091574299644	-7.081226031194693	-19.38927459772312	-439.4196026141393	-41.70398789550385	-26.34365177063837	-3.08982712901443	-0.9552041621693022	-0.8111146636654879	10.51935145510362	-0.0782681953472535	3.340857440054714	-3.31403395723368	9.723922193224645	9.72392219322607	2.192434703775792	-0.4043960003764741	3.290021157747882	0.8657027631298815	-1.505591978139222e-08	1.388189389666192e-06	-1.304007814336953e-07	1.570767902295996e-07	-4.939856806122833e-07	3.996540369904608e-07	1.885233164126563e-07
0.04	0.04489294451327465	0.1074640949183538	0.9021860013461687	0.1356326184044082	-0.3702429318503179	-0.2252122408371492	-0.2173087579069253	0.2133710869491855	0.2133710869491915	-0.1726149078216875	-0.1634814261646931	0.09299031271057726	0.07963532126116311	-0.1295773310139425	-0.04018498258368562	-0.03310038836160876	0.4382274841136661	-0.003356717721614045	0.1348834740934893	-0.1363591053947036	0.4033007814441472	0.4033007814441648	0.0915518728609678	-0.02100161225074467	0.1353639915027389	0.03542829285945606	0.105145835883706	-0.04316710038242611	-0.008305030036256596	-0.2388053786574848	0.1743430083765034	-0.09557093670946376	-0.04035244611091366	24.74852795395428	37.79404643586241	-7.015605335605554	-17.29812646076709	-438.7056107612645	-39.14503183077017	-26.33980999386013	-3.222581106253601	-0.9729976415435735	-0.8378521613134974	10.60289752691529	-0.077910949459136	3.034511442858059	-2.989755355370074	9.616035702908244	9.616035702907235	2.155450514808027	-0.6354712576402782	3.173864733921745	0.8381213970004606	-1.667101701302449e-08	1.572096700402296e-06	-1.703486753639882e-07	1.842951221515372e-07	-6.254584253055081e-07	4.596416226014247e-07	2.207934532742849e-07
0.05	0.04344352915666359	0.1070143008025375	0.9018138089527332	0.1405300212864313	-0.3702793771577641	-0.2237074336179276	-0.2188253444770671	0.2178737329022044	0.2178737329022033	-0.1715932739491444	-0.1637141053199465	0.09449946827425171	0.0800316645532082	-0.16010980688229	-0.04972656037515804	-0.04135563688050416	0.5407130310466705	-0.003934984808236105	0.1659316479955499	-0.1667312929504899	0.4967894653093102	0.4967894653093379	0.1126002460083167	-0.02545911818232558	0.1663177830940877	0.04380154007067547	0.1010384298752637	-0.041241012204778	-0.007241348244147891	-0.2346800400792887	0.1682595185306173	-0.09425848627695931	-0.03731447305084545	22.91739228512679	37.42984784770572	-6.826389192564282	-16.27388766523748	-437.803347415016	-38.94259365887207	-26.33311591988087	-2.93917468372899	-0.9376087396637417	-0.8221193344320425	9.990378757168049	-0.04838768705044066	3.118096105736793	-3.026913102344588	9.149398732001606	9.149398732003657	2.0535814827231	-0.3396887308755809	3.03378386802465	0.8308750902282387	-1.813478326163552e-08	1.62052371211865e-06	-1.908479503792923e-07	1.940865182395828e-07	-6.941933566147564e-07	4.863520315564729e-07	2.313985306199387e-07
